<svg width="37" height="32" viewBox="0 0 37 32" fill="none" xmlns="http://www.w3.org/2000/svg">
<path d="M1.59459 11.9542L6.57308 30.1769C6.7847 30.9515 7.82469 31.2175 8.44734 30.7104C10.2261 29.262 13.6726 27.1111 18.4545 27.1111C23.019 27.1111 26.0625 29.0708 27.6813 30.5087C28.3041 31.0619 29.4364 30.8373 29.6811 30.0411L35.217 12.0294C35.4763 11.1859 34.5955 10.4445 33.8086 10.8439L25.509 15.0565C24.9821 15.3239 24.3396 15.0787 24.1248 14.5284L19.3861 2.38686C19.0549 1.5383 17.8542 1.5383 17.523 2.38686L12.7843 14.5284C12.5695 15.0787 11.927 15.3239 11.4001 15.0565L3.01184 10.7989C2.23832 10.4063 1.36598 11.1174 1.59459 11.9542Z" stroke="#F76464" stroke-width="2"/>
</svg>
