<svg width="64" height="52" viewBox="0 0 64 52" fill="none" xmlns="http://www.w3.org/2000/svg">
<path d="M50.3848 44.3848C50.7753 43.9943 50.7753 43.3611 50.3848 42.9706C49.9943 42.5801 49.3611 42.5801 48.9706 42.9706L50.3848 44.3848ZM33.9615 50.923L33.8831 49.926L33.8831 49.926L33.9615 50.923ZM17.3054 46.2254L17.8932 45.4164L17.8932 45.4164L17.3054 46.2254ZM7.69079 31.8362L6.71842 32.0696L7.69079 31.8362ZM10.6759 14.3412C10.5053 13.816 9.94111 13.5285 9.41585 13.6992L0.856345 16.4804C0.331091 16.651 0.0436399 17.2152 0.214305 17.7404C0.384971 18.2657 0.949125 18.5531 1.47438 18.3825L9.08283 15.9103L11.555 23.5188C11.7256 24.044 12.2898 24.3315 12.815 24.1608C13.3403 23.9902 13.6277 23.426 13.4571 22.9007L10.6759 14.3412ZM48.9706 42.9706C44.9299 47.0113 39.5799 49.4777 33.8831 49.926L34.04 51.9199C40.2116 51.4342 46.0073 48.7623 50.3848 44.3848L48.9706 42.9706ZM33.8831 49.926C28.1862 50.3744 22.5163 48.7753 17.8932 45.4164L16.7176 47.0345C21.726 50.6732 27.8684 52.4056 34.04 51.9199L33.8831 49.926ZM17.8932 45.4164C13.2701 42.0575 9.99717 37.1593 8.66316 31.6027L6.71842 32.0696C8.1636 38.0892 11.7093 43.3957 16.7176 47.0345L17.8932 45.4164ZM8.66316 31.6027C7.32914 26.0461 8.02156 20.1959 10.6159 15.1042L8.83386 14.1963C6.02335 19.7122 5.27323 26.05 6.71842 32.0696L8.66316 31.6027Z" fill="#969696"/>
<path d="M13.6153 7.61523C13.2247 8.00576 13.2247 8.63892 13.6153 9.02945C14.0058 9.41997 14.6389 9.41997 15.0295 9.02945L13.6153 7.61523ZM30.0385 1.07707L29.9601 0.0801543L29.9601 0.0801543L30.0385 1.07707ZM46.6947 5.77458L47.2824 4.96556L47.2824 4.96556L46.6947 5.77458ZM56.3093 20.1639L57.2816 19.9304L57.2816 19.9304L56.3093 20.1639ZM53.3241 37.6588C53.4948 38.184 54.059 38.4715 54.5842 38.3008L63.1437 35.5197C63.669 35.349 63.9564 34.7848 63.7858 34.2596C63.6151 33.7343 63.0509 33.4469 62.5257 33.6176L54.9172 36.0897L52.4451 28.4812C52.2744 27.956 51.7103 27.6685 51.185 27.8392C50.6598 28.0099 50.3723 28.574 50.543 29.0993L53.3241 37.6588ZM15.0295 9.02945C19.0702 4.9887 24.4201 2.52234 30.117 2.07399L29.9601 0.0801543C23.7885 0.56587 17.9927 3.23776 13.6153 7.61523L15.0295 9.02945ZM30.117 2.07399C35.8139 1.62564 41.4838 3.22471 46.1069 6.5836L47.2824 4.96556C42.2741 1.32677 36.1317 -0.40556 29.9601 0.0801543L30.117 2.07399ZM46.1069 6.5836C50.73 9.94248 54.0029 14.8407 55.3369 20.3973L57.2816 19.9304C55.8365 13.9108 52.2908 8.60435 47.2824 4.96556L46.1069 6.5836ZM55.3369 20.3973C56.6709 25.9539 55.9785 31.8041 53.3842 36.8958L55.1662 37.8038C57.9767 32.2878 58.7268 25.9501 57.2816 19.9304L55.3369 20.3973Z" fill="#969696"/>
</svg>
