<svg width="65" height="52" viewBox="0 0 65 52" fill="none" xmlns="http://www.w3.org/2000/svg">
<path d="M50.8749 44.3848C51.2655 43.9943 51.2655 43.3611 50.8749 42.9706C50.4844 42.5801 49.8513 42.5801 49.4607 42.9706L50.8749 44.3848ZM34.4516 50.923L34.3732 49.926L34.3732 49.926L34.4516 50.923ZM17.7955 46.2254L18.3833 45.4164L18.3833 45.4164L17.7955 46.2254ZM8.18092 31.8362L7.20855 32.0696L8.18092 31.8362ZM11.1661 14.3412C10.9954 13.816 10.4312 13.5285 9.90599 13.6992L1.34648 16.4804C0.821226 16.651 0.533775 17.2152 0.70444 17.7404C0.875106 18.2657 1.43926 18.5531 1.96451 18.3825L9.57297 15.9103L12.0451 23.5188C12.2158 24.044 12.7799 24.3315 13.3052 24.1608C13.8304 23.9902 14.1179 23.426 13.9472 22.9007L11.1661 14.3412ZM49.4607 42.9706C45.42 47.0113 40.07 49.4777 34.3732 49.926L34.5301 51.9199C40.7017 51.4342 46.4975 48.7623 50.8749 44.3848L49.4607 42.9706ZM34.3732 49.926C28.6763 50.3744 23.0064 48.7753 18.3833 45.4164L17.2078 47.0345C22.2161 50.6732 28.3585 52.4056 34.5301 51.9199L34.3732 49.926ZM18.3833 45.4164C13.7602 42.0575 10.4873 37.1593 9.15329 31.6027L7.20855 32.0696C8.65374 38.0892 12.1994 43.3957 17.2078 47.0345L18.3833 45.4164ZM9.15329 31.6027C7.81927 26.0461 8.5117 20.1959 11.106 15.1042L9.324 14.1963C6.51349 19.7122 5.76337 26.05 7.20855 32.0696L9.15329 31.6027Z" fill="#F76464"/>
<path d="M14.1054 7.61523C13.7149 8.00576 13.7149 8.63892 14.1054 9.02945C14.4959 9.41997 15.1291 9.41997 15.5196 9.02945L14.1054 7.61523ZM30.5287 1.07707L30.4502 0.0801543L30.4502 0.0801543L30.5287 1.07707ZM47.1848 5.77458L47.7726 4.96556L47.7726 4.96556L47.1848 5.77458ZM56.7994 20.1639L57.7718 19.9304L57.7718 19.9304L56.7994 20.1639ZM53.8143 37.6588C53.9849 38.184 54.5491 38.4715 55.0744 38.3008L63.6339 35.5197C64.1591 35.349 64.4466 34.7848 64.2759 34.2596C64.1052 33.7343 63.5411 33.4469 63.0158 33.6176L55.4074 36.0897L52.9352 28.4812C52.7646 27.956 52.2004 27.6685 51.6752 27.8392C51.1499 28.0099 50.8625 28.574 51.0331 29.0993L53.8143 37.6588ZM15.5196 9.02945C19.5604 4.9887 24.9103 2.52234 30.6071 2.07399L30.4502 0.0801543C24.2786 0.56587 18.4829 3.23776 14.1054 7.61523L15.5196 9.02945ZM30.6071 2.07399C36.304 1.62564 41.9739 3.22471 46.597 6.5836L47.7726 4.96556C42.7642 1.32677 36.6218 -0.40556 30.4502 0.0801543L30.6071 2.07399ZM46.597 6.5836C51.2201 9.94248 54.493 14.8407 55.827 20.3973L57.7718 19.9304C56.3266 13.9108 52.7809 8.60435 47.7726 4.96556L46.597 6.5836ZM55.827 20.3973C57.1611 25.9539 56.4686 31.8041 53.8743 36.8958L55.6563 37.8038C58.4668 32.2878 59.217 25.9501 57.7718 19.9304L55.827 20.3973Z" fill="#F76464"/>
</svg>
